<?xml version="1.0" encoding="UTF-8" standalone="no"?>
<svg width="378px" height="75px" viewBox="0 0 378 75" version="1.1" xmlns="http://www.w3.org/2000/svg" xmlns:xlink="http://www.w3.org/1999/xlink">
    <!-- Generator: Sketch 3.7.1 (28215) - http://www.bohemiancoding.com/sketch -->
    <title>waves</title>
    <desc>Created with Sketch.</desc>
    <defs></defs>
    <g id="Page-1" stroke="none" stroke-width="1" fill="none" fill-rule="evenodd" stroke-linecap="square">
        <g id="Desktop" transform="translate(-346.000000, -168.000000)" stroke="#030EF6" stroke-width="0.8">
            <g id="waves" transform="translate(346.000000, 168.510000)">
                <path d="M0.494764398,9.4 C0.494764398,9.4 127.005186,29.3099998 189.002592,9.4 C250.999998,-10.5099998 377.51043,9.4 377.51043,9.4" id="Line"></path>
                <path d="M0.494764398,14.4 C0.494764398,14.4 127.005186,34.3099998 189.002592,14.4 C250.999998,-5.50999977 377.51043,14.4 377.51043,14.4" id="Line"></path>
                <path d="M0.494764398,19.4 C0.494764398,19.4 127.005186,39.3099998 189.002592,19.4 C250.999998,-0.509999768 377.51043,19.4 377.51043,19.4" id="Line"></path>
                <path d="M0.494764398,24.4 C0.494764398,24.4 127.005186,44.3099998 189.002592,24.4 C250.999998,4.49000023 377.51043,24.4 377.51043,24.4" id="Line"></path>
                <path d="M0.494764398,29.4 C0.494764398,29.4 127.005186,49.3099998 189.002592,29.4 C250.999998,9.49000023 377.51043,29.4 377.51043,29.4" id="Line"></path>
                <path d="M0.494764398,34.4 C0.494764398,34.4 127.005186,54.3099998 189.002592,34.4 C250.999998,14.4900002 377.51043,34.4 377.51043,34.4" id="Line"></path>
                <path d="M0.494764398,39.4 C0.494764398,39.4 127.005186,59.3099998 189.002592,39.4 C250.999998,19.4900002 377.51043,39.4 377.51043,39.4" id="Line"></path>
                <path d="M0.494764398,44.4 C0.494764398,44.4 127.005186,64.3099998 189.002592,44.4 C250.999998,24.4900002 377.51043,44.4 377.51043,44.4" id="Line"></path>
                <path d="M0.494764398,49.4 C0.494764398,49.4 127.005186,69.3099998 189.002592,49.4 C250.999998,29.4900002 377.51043,49.4 377.51043,49.4" id="Line"></path>
                <path d="M0.494764398,54.4 C0.494764398,54.4 127.005186,74.3099998 189.002592,54.4 C250.999998,34.4900002 377.51043,54.4 377.51043,54.4" id="Line"></path>
                <path d="M0.494764398,59.4 C0.494764398,59.4 127.005186,79.3099998 189.002592,59.4 C250.999998,39.4900002 377.51043,59.4 377.51043,59.4" id="Line"></path>
                <path d="M0.494764398,64.4 C0.494764398,64.4 127.005186,84.3099998 189.002592,64.4 C250.999998,44.4900002 377.51043,64.4 377.51043,64.4" id="Line"></path>
            </g>
        </g>
    </g>
</svg>